<svg xmlns="http://www.w3.org/2000/svg" viewBox="0 0 48 48" width="48" height="48">
  <defs>
    <filter id="ttShadow" x="-10%" y="-10%" width="130%" height="130%">
      <feDropShadow dx="0" dy="2" stdDeviation="2" flood-color="#000000" flood-opacity="0.4"/>
    </filter>
  </defs>
  <!-- Background Badge -->
  <rect x="2" y="2" width="44" height="44" rx="12" fill="#000000" filter="url(#ttShadow)"/>
  
  <!-- TikTok Note with Cyan and Red/Magenta layered offsets -->
  <!-- Cyan layer -->
  <path fill="#25F4EE" d="M31.2 17.1c1.5 1.1 3.3 1.8 5.3 1.9v4.2c-2.1 0-4.1-.7-5.8-1.9v8.9c0 4.8-3.9 8.7-8.7 8.7-4.8 0-8.7-3.9-8.7-8.7 0-4.8 3.9-8.7 8.7-8.7.6 0 1.2.1 1.7.2v4.4c-.5-.2-1.1-.3-1.7-.3-2.4 0-4.4 2-4.4 4.4s2 4.4 4.4 4.4 4.4-2 4.4-4.4V11h4.8c0 2.4.9 4.6 2.4 6.1h-.4z" transform="translate(-0.8, -0.6)"/>
  
  <!-- Red/Pink layer -->
  <path fill="#FE2C55" d="M31.2 17.1c1.5 1.1 3.3 1.8 5.3 1.9v4.2c-2.1 0-4.1-.7-5.8-1.9v8.9c0 4.8-3.9 8.7-8.7 8.7-4.8 0-8.7-3.9-8.7-8.7 0-4.8 3.9-8.7 8.7-8.7.6 0 1.2.1 1.7.2v4.4c-.5-.2-1.1-.3-1.7-.3-2.4 0-4.4 2-4.4 4.4s2 4.4 4.4 4.4 4.4-2 4.4-4.4V11h4.8c0 2.4.9 4.6 2.4 6.1h-.4z" transform="translate(0.8, 0.6)"/>
  
  <!-- White main layer -->
  <path fill="#FFFFFF" d="M31.2 17.1c1.5 1.1 3.3 1.8 5.3 1.9v4.2c-2.1 0-4.1-.7-5.8-1.9v8.9c0 4.8-3.9 8.7-8.7 8.7-4.8 0-8.7-3.9-8.7-8.7 0-4.8 3.9-8.7 8.7-8.7.6 0 1.2.1 1.7.2v4.4c-.5-.2-1.1-.3-1.7-.3-2.4 0-4.4 2-4.4 4.4s2 4.4 4.4 4.4 4.4-2 4.4-4.4V11h4.8c0 2.4.9 4.6 2.4 6.1h-.4z"/>
</svg>
